<svg id="Ebene_1" data-name="Ebene 1" xmlns="http://www.w3.org/2000/svg" viewBox="0 0 27.9 36.76"><path d="M19.68,5.26l2.78,3s3.31,3.4,3.31,4.14V32.06A2.77,2.77,0,0,1,23,34.82H5.36a2.76,2.76,0,0,1-2.75-2.76V5.31A2.76,2.76,0,0,1,5.36,2.56H15.92C17,2.56,19.68,5.26,19.68,5.26Z" style="fill:#004161;stroke:#fff;stroke-miterlimit:10;stroke-width:2.5px"/><path d="M25.77,12.74h-7a2.87,2.87,0,0,1-2.86-2.86V2.56" style="fill:#004161;stroke:#fff;stroke-miterlimit:10;stroke-width:2.5px"/><rect x="8.1" y="17.62" width="12.17" height="2.82" rx="0.57" style="fill:#fff;stroke:#fff;stroke-miterlimit:10"/><rect x="8.1" y="23.19" width="12.17" height="2.82" rx="0.57" style="fill:#fff;stroke:#fff;stroke-miterlimit:10"/></svg>